<svg width="42" height="42" viewBox="0 0 42 42" fill="none" xmlns="http://www.w3.org/2000/svg">
<path d="M35.147 6.86261C38.9228 10.6408 41.0017 15.6652 41 21.0073C40.9954 32.0326 32.0224 41 21.0002 41H20.9924C17.4038 40.9981 13.884 40.0347 10.8133 38.2129L10.2188 37.8605L2.91801 39.7744L2.34072 39.9257L2.499 39.348L4.44484 32.2457L4.05825 31.6315C2.05561 28.4476 0.998505 24.7684 1 20.9911C1.00441 9.96601 9.97724 1 21.0078 1C26.3491 1.00222 31.3711 3.08456 35.147 6.86261ZM35.147 6.86261L34.9039 7.1076" stroke="#212426" stroke-width="0.58"/>
<path fill-rule="evenodd" clip-rule="evenodd" d="M15.1531 10.955C14.7155 9.98234 14.2549 9.96291 13.8387 9.94585C13.4982 9.9313 13.1084 9.93214 12.7192 9.93214C12.3299 9.93214 11.697 10.0785 11.1618 10.6629C10.6263 11.2473 9.11719 12.6601 9.11719 15.5335C9.11719 18.4072 11.2105 21.1838 11.5022 21.5737C11.7943 21.9631 15.5432 28.0481 21.4801 30.3891C26.4143 32.3345 27.4184 31.9475 28.4894 31.8502C29.5603 31.7529 31.9451 30.4378 32.432 29.074C32.9187 27.7104 32.9187 26.5416 32.7727 26.2973C32.6266 26.0539 32.2372 25.9078 31.653 25.6158C31.0689 25.3239 28.1973 23.9107 27.6618 23.7161C27.1263 23.5213 26.7368 23.424 26.3474 24.0087C25.9579 24.5928 24.8391 25.9078 24.4984 26.2973C24.1576 26.6875 23.8168 26.7363 23.2327 26.4443C22.6485 26.1512 20.7673 25.5352 18.5356 23.5456C16.7991 21.9977 15.6267 20.086 15.2859 19.5013C14.9453 18.9172 15.2495 18.6008 15.5424 18.3097C15.8048 18.0481 16.1267 17.6279 16.4188 17.2869C16.7102 16.9458 16.8076 16.7025 17.0023 16.313C17.1971 15.9231 17.0997 15.582 16.9536 15.2899C16.8076 14.998 15.6725 12.1097 15.1531 10.955Z" fill="#212426"/>
</svg>
