<svg width="40" height="40" viewBox="0 0 40 40" fill="none" xmlns="http://www.w3.org/2000/svg">
<g clip-path="url(#clip0_344_51)">
<path d="M0.29 19.2C0.29 14.6663 0.290616 11.2952 0.638886 8.70482C0.986034 6.12277 1.67381 4.35986 3.01684 3.01684C4.35986 1.67381 6.12277 0.986034 8.70482 0.638886C11.2952 0.290616 14.6663 0.29 19.2 0.29H20.8C25.3337 0.29 28.7048 0.290616 31.2952 0.638886C33.8772 0.986034 35.6401 1.67381 36.9832 3.01684C38.3262 4.35986 39.014 6.12277 39.3611 8.70482C39.7094 11.2952 39.71 14.6663 39.71 19.2V20.8C39.71 25.3337 39.7094 28.7048 39.3611 31.2952C39.014 33.8772 38.3262 35.6401 36.9832 36.9832C35.6401 38.3262 33.8772 39.014 31.2952 39.3611C28.7048 39.7094 25.3337 39.71 20.8 39.71H19.2C14.6663 39.71 11.2952 39.7094 8.70482 39.3611C6.12277 39.014 4.35986 38.3262 3.01684 36.9832C1.67381 35.6401 0.986034 33.8772 0.638886 31.2952C0.290616 28.7048 0.29 25.3337 0.29 20.8V19.2Z" stroke="#212426" stroke-width="0.58"/>
<path d="M21.2833 28.8167C12.1666 28.8167 6.96667 22.5667 6.75 12.1667H11.3167C11.4667 19.8001 14.8333 23.0334 17.4999 23.7001V12.1667H21.8001V18.7501C24.4334 18.4667 27.1998 15.4667 28.1331 12.1667H32.4332C31.7165 16.2334 28.7165 19.2334 26.5832 20.4667C28.7165 21.4667 32.1333 24.0834 33.4333 28.8167H28.6998C27.6832 25.6501 25.1501 23.2001 21.8001 22.8667V28.8167H21.2833Z" fill="#212426"/>
</g>
<defs>
<clipPath id="clip0_344_51">
<rect width="40" height="40" fill="white"/>
</clipPath>
</defs>
</svg>
